<?xml version="1.0" encoding="UTF-8" ?>
<!DOCTYPE svg PUBLIC "-//W3C//DTD SVG 1.1//EN" "http://www.w3.org/Graphics/SVG/1.1/DTD/svg11.dtd">
<svg width="1024pt" height="442pt" viewBox="0 0 1024 442" version="1.1" xmlns="http://www.w3.org/2000/svg">
<g id="#d53828ff">
<path fill="#d53828" opacity="1.00" d=" M 285.54 35.49 C 289.00 33.25 293.88 34.49 296.27 37.75 C 302.69 45.52 306.23 55.10 311.23 63.75 C 316.13 73.41 321.84 82.78 329.34 90.66 C 334.74 95.90 341.43 100.31 349.03 101.32 C 355.50 102.23 361.93 100.28 367.86 97.86 C 383.12 91.46 397.09 82.14 412.98 77.24 C 419.40 75.47 426.30 73.88 432.85 75.98 C 441.38 77.91 448.27 85.62 449.25 94.29 C 445.20 94.71 441.16 95.21 437.15 95.86 C 422.62 98.69 408.83 105.85 398.80 116.83 C 388.12 127.78 382.33 142.86 381.03 157.96 C 380.10 163.98 380.43 170.10 381.28 176.12 C 382.04 186.12 384.86 195.81 388.04 205.28 C 392.19 216.36 397.12 227.23 403.74 237.08 C 404.91 238.65 405.51 240.51 405.67 242.46 C 402.42 241.20 399.54 239.24 396.71 237.25 C 373.13 220.60 352.73 199.65 335.63 176.45 C 321.33 157.20 309.20 136.35 299.25 114.55 C 292.71 100.07 287.13 85.08 283.64 69.56 C 282.01 62.82 281.29 55.87 281.02 48.96 C 281.60 44.32 281.47 38.65 285.54 35.49 Z" />
<path fill="#d53828" opacity="1.00" d=" M 727.73 37.74 C 730.12 34.49 734.99 33.25 738.45 35.48 C 741.75 37.89 742.14 42.17 742.70 45.88 C 743.44 50.27 742.57 54.68 742.17 59.06 C 741.84 62.88 741.08 66.65 740.16 70.37 C 735.40 91.30 726.83 111.14 717.17 130.24 C 695.86 170.96 666.99 208.50 629.55 235.62 C 625.99 238.17 622.44 240.85 618.33 242.46 C 618.43 240.25 619.35 238.26 620.63 236.51 C 626.95 227.07 631.63 216.65 635.68 206.07 C 638.44 197.97 640.92 189.73 642.16 181.25 C 643.02 173.52 644.27 165.72 642.97 157.96 C 641.95 145.65 637.84 133.54 630.74 123.40 C 622.08 111.67 609.80 102.57 595.84 98.24 C 589.07 95.77 581.86 95.08 574.75 94.29 C 575.53 87.25 580.28 80.82 586.56 77.63 C 591.65 75.32 597.43 74.31 602.98 75.40 C 618.22 77.97 631.62 86.11 645.30 92.82 C 653.15 96.65 661.18 100.80 670.03 101.51 C 679.44 102.14 688.15 97.06 694.65 90.66 C 702.16 82.79 707.87 73.41 712.77 63.75 C 717.77 55.09 721.31 45.52 727.73 37.74 Z" />
<path fill="#d53828" opacity="1.00" d=" M 352.41 49.47 C 355.54 48.63 358.85 48.96 362.05 49.03 C 369.06 49.55 374.97 54.68 377.86 60.87 C 379.37 64.03 379.01 67.62 379.06 71.02 C 379.21 76.28 376.62 81.37 372.84 84.93 C 367.17 89.94 358.92 91.14 351.78 89.08 C 346.02 87.10 341.08 82.53 339.13 76.70 C 337.18 69.90 337.73 61.99 342.26 56.30 C 344.96 53.19 348.44 50.67 352.41 49.47 Z" />
<path fill="#d53828" opacity="1.00" d=" M 660.25 49.24 C 663.49 48.78 666.80 48.85 670.07 49.11 C 674.66 50.00 678.70 52.82 681.74 56.30 C 685.45 60.98 686.56 67.26 685.63 73.07 C 684.86 80.97 678.38 87.59 670.82 89.45 C 665.92 90.37 660.58 90.35 656.05 88.04 C 650.05 85.50 645.74 79.48 645.03 73.05 C 644.98 68.77 644.38 64.16 646.44 60.22 C 649.23 54.85 654.17 50.36 660.25 49.24 Z" />
<path fill="#d53828" opacity="1.00" d=" M 435.44 111.72 C 439.23 110.79 443.06 109.80 447.00 109.97 C 453.34 110.18 459.80 109.38 466.03 110.95 C 482.71 113.76 498.35 121.31 512.00 131.17 C 525.92 121.07 541.98 113.50 559.05 110.79 C 565.28 109.42 571.69 110.18 578.00 109.98 C 591.82 110.85 605.45 116.84 614.84 127.15 C 621.07 134.21 625.36 142.98 626.86 152.29 C 628.59 159.07 627.96 166.11 627.94 173.03 C 625.04 200.79 612.34 227.13 593.71 247.75 C 576.36 266.53 553.52 279.97 528.93 286.76 C 522.36 288.23 515.75 290.72 508.92 289.87 C 475.59 284.15 444.10 266.36 423.33 239.48 C 408.61 220.27 398.53 197.21 396.06 173.04 C 395.96 168.04 395.85 163.03 396.13 158.05 C 397.16 151.40 398.40 144.66 401.50 138.63 C 407.90 125.06 420.95 115.15 435.44 111.72 M 495.48 158.05 C 495.53 167.70 495.49 177.35 495.50 187.00 C 486.17 187.01 476.84 186.99 467.51 187.01 C 467.49 197.67 467.49 208.33 467.51 219.00 C 476.85 219.03 486.19 218.94 495.53 219.05 C 495.48 228.52 495.49 238.00 495.52 247.48 C 506.50 247.51 517.49 247.51 528.48 247.48 C 528.51 238.00 528.51 228.53 528.47 219.05 C 537.81 218.94 547.15 219.03 556.49 219.00 C 556.51 208.33 556.51 197.67 556.49 187.01 C 547.16 186.99 537.83 187.01 528.50 187.00 C 528.50 177.35 528.47 167.70 528.52 158.05 C 517.51 157.97 506.49 157.96 495.48 158.05 Z" />
<path fill="#d53828" opacity="1.00" d=" M 303.79 335.38 C 299.11 333.79 298.86 326.53 303.18 324.35 C 306.07 323.70 310.16 323.26 311.93 326.28 C 313.24 328.58 312.19 331.34 311.93 333.80 C 309.47 335.16 306.59 336.98 303.79 335.38 Z" />
<path fill="#d53828" opacity="1.00" d=" M 771.11 323.92 C 773.28 324.03 775.54 323.74 777.66 324.36 C 782.20 326.54 781.38 334.28 776.56 335.60 C 773.00 337.20 768.49 334.61 768.12 330.73 C 767.49 328.00 769.33 325.72 771.11 323.92 Z" />
<path fill="#d53828" opacity="1.00" d=" M 279.47 325.05 C 282.65 324.99 285.82 324.99 289.00 325.00 C 288.97 345.51 289.06 366.02 288.96 386.53 C 285.82 386.50 282.69 386.50 279.56 386.50 C 279.52 385.17 279.48 383.85 279.45 382.53 C 270.74 389.63 256.95 389.09 248.83 381.33 C 242.08 374.38 240.96 363.32 244.36 354.52 C 246.88 347.95 253.18 343.25 260.04 342.11 C 263.04 341.85 266.05 341.89 269.06 342.03 C 272.94 342.28 276.31 344.45 279.50 346.48 C 279.49 339.34 279.52 332.19 279.47 325.05 M 265.27 350.09 C 261.64 350.86 257.59 352.11 255.45 355.40 C 251.73 360.21 251.30 367.28 254.54 372.44 C 257.98 377.90 265.62 380.33 271.46 377.35 C 276.86 374.88 279.80 368.76 279.52 362.98 C 278.60 356.03 272.37 350.13 265.27 350.09 Z" />
<path fill="#d53828" opacity="1.00" d=" M 427.00 325.00 C 430.16 325.00 433.32 324.99 436.49 325.00 C 436.47 332.28 436.62 339.57 436.38 346.86 C 438.47 345.32 440.53 343.63 443.04 342.82 C 445.90 341.76 449.00 341.98 452.01 341.93 C 462.25 341.27 471.85 349.78 472.93 359.89 C 473.10 363.23 473.15 366.59 472.89 369.94 C 471.60 378.04 465.06 384.97 457.04 386.69 C 449.83 388.65 441.55 387.08 435.97 381.97 C 435.98 383.47 435.99 384.98 436.00 386.49 C 433.00 386.50 430.00 386.50 427.00 386.49 C 427.00 365.99 427.00 345.50 427.00 325.00 M 449.33 350.16 C 445.44 350.97 441.41 352.63 439.15 356.08 C 435.01 361.92 436.04 370.80 441.48 375.48 C 444.21 377.99 448.14 378.95 451.76 378.55 C 459.05 377.67 464.38 370.11 463.53 362.97 C 462.93 355.83 456.36 350.13 449.33 350.16 Z" />
<path fill="#d53828" opacity="1.00" d=" M 657.00 325.00 C 660.17 324.99 663.35 324.99 666.53 325.05 C 666.47 340.70 666.54 356.36 666.48 372.01 C 666.28 374.51 667.20 377.47 669.75 378.45 C 672.08 379.72 674.63 378.38 676.96 377.84 C 677.01 380.76 677.00 383.69 676.90 386.62 C 671.46 388.07 665.14 387.88 660.60 384.22 C 658.26 381.82 656.93 378.42 656.98 375.06 C 657.01 358.37 656.99 341.69 657.00 325.00 Z" />
<path fill="#d53828" opacity="1.00" d=" M 208.07 337.37 C 210.67 332.52 215.69 329.70 219.16 325.53 C 223.30 325.48 227.44 325.40 231.57 325.66 C 229.68 328.74 226.45 330.51 223.71 332.73 C 221.71 334.23 219.84 335.91 217.72 337.24 C 214.54 337.84 211.27 337.45 208.07 337.37 Z" />
<path fill="#d53828" opacity="1.00" d=" M 108.44 333.54 C 116.41 326.36 128.99 325.46 138.14 330.89 C 139.97 332.06 141.39 333.74 142.85 335.33 C 150.47 326.56 164.44 325.09 174.36 330.61 C 180.09 334.30 183.21 341.26 183.03 347.99 C 182.98 360.82 183.01 373.65 183.00 386.49 C 179.85 386.50 176.70 386.50 173.55 386.51 C 173.45 376.01 173.49 365.50 173.53 354.99 C 173.51 350.35 173.55 345.12 170.51 341.30 C 165.31 335.01 154.64 335.20 149.27 341.17 C 146.71 343.70 145.92 347.49 145.97 350.98 C 146.02 362.81 146.00 374.65 146.00 386.48 C 142.66 386.51 139.33 386.51 136.00 386.49 C 135.96 374.31 136.07 362.14 135.96 349.96 C 136.01 345.11 133.55 340.14 129.14 337.89 C 122.15 334.66 111.88 337.57 109.63 345.48 C 108.12 349.14 108.50 353.14 108.49 357.00 C 108.51 366.83 108.51 376.66 108.48 386.49 C 105.32 386.50 102.16 386.50 99.00 386.49 C 99.00 367.16 99.00 347.84 99.00 328.51 C 102.17 328.49 105.35 328.49 108.52 328.51 C 108.50 330.18 108.47 331.86 108.44 333.54 Z" />
<path fill="#d53828" opacity="1.00" d=" M 562.84 329.57 C 573.00 325.55 584.62 327.39 594.14 332.30 C 593.89 335.39 592.66 338.25 591.34 341.01 C 584.96 338.37 578.15 334.98 571.06 336.59 C 567.42 337.14 563.32 339.11 562.54 343.07 C 561.71 345.81 563.59 348.64 566.07 349.77 C 572.90 353.01 580.66 353.51 587.58 356.52 C 591.56 358.38 595.29 361.64 596.23 366.11 C 597.06 370.71 596.57 375.81 593.81 379.72 C 591.51 382.92 587.82 384.73 584.22 386.06 C 576.00 388.45 567.11 387.68 559.14 384.75 C 556.18 383.59 553.16 382.18 551.03 379.75 C 551.17 376.82 553.37 374.35 554.43 371.66 C 558.10 373.75 561.59 376.33 565.74 377.44 C 570.76 378.81 576.22 379.02 581.22 377.45 C 584.14 376.55 586.33 373.92 586.95 370.96 C 586.48 365.85 580.97 364.19 576.79 363.11 C 569.99 360.96 562.19 360.47 556.69 355.46 C 552.60 351.92 551.79 346.01 552.77 340.96 C 553.71 335.68 557.90 331.38 562.84 329.57 Z" />
<path fill="#d53828" opacity="1.00" d=" M 325.51 386.49 C 325.51 367.15 325.44 347.82 325.55 328.48 C 328.70 328.49 331.85 328.49 335.00 328.51 C 335.01 345.01 334.99 361.50 335.00 377.99 C 345.34 378.00 355.68 378.00 366.02 378.00 C 366.01 380.84 365.99 383.68 365.96 386.53 C 352.47 386.46 338.99 386.53 325.51 386.49 Z" />
<path fill="#d53828" opacity="1.00" d=" M 737.48 375.02 C 737.54 360.84 737.42 346.66 737.55 332.48 C 740.70 332.48 743.85 332.48 747.00 332.50 C 746.99 335.66 747.00 338.83 747.00 341.99 C 751.00 341.99 755.00 342.00 759.00 342.00 C 758.99 344.66 758.99 347.33 759.00 350.00 C 755.00 350.00 751.00 350.00 747.00 350.00 C 747.03 357.70 746.95 365.39 747.01 373.09 C 746.74 376.35 749.83 378.80 752.86 379.02 C 755.22 378.56 757.40 377.49 759.67 376.71 C 760.43 379.27 762.46 381.79 761.80 384.56 C 757.26 387.72 751.19 388.24 745.96 386.68 C 740.86 385.39 737.29 380.22 737.48 375.02 Z" />
<path fill="#d53828" opacity="1.00" d=" M 207.62 342.80 C 210.62 341.73 213.86 341.97 216.99 341.94 C 224.96 341.63 232.74 346.76 235.80 354.09 C 237.38 357.25 237.59 360.82 237.62 364.29 C 226.55 366.98 215.30 368.85 204.11 370.97 C 207.04 377.59 215.38 379.94 221.95 378.00 C 225.12 377.25 227.55 374.95 230.10 373.09 C 231.85 375.16 233.61 377.22 235.41 379.25 C 232.92 383.46 228.17 385.75 223.53 386.73 C 215.19 388.69 205.60 386.95 199.26 380.94 C 192.51 373.92 191.33 362.79 195.16 354.04 C 197.55 348.80 202.13 344.58 207.62 342.80 M 210.44 351.26 C 205.40 353.18 203.05 358.64 202.23 363.61 C 210.90 362.23 219.58 360.77 228.10 358.65 C 226.06 355.87 224.20 352.58 220.83 351.25 C 217.62 349.43 213.67 349.61 210.44 351.26 Z" />
<path fill="#d53828" opacity="1.00" d=" M 301.48 342.07 C 304.65 341.99 307.82 341.98 311.00 341.99 C 311.00 356.82 311.00 371.65 311.00 386.49 C 307.85 386.50 304.69 386.50 301.55 386.51 C 301.42 371.70 301.55 356.89 301.48 342.07 Z" />
<path fill="#d53828" opacity="1.00" d=" M 368.72 357.45 C 370.52 349.41 377.78 343.09 385.91 342.09 C 388.63 341.87 391.36 341.89 394.09 342.01 C 398.01 342.21 401.64 344.18 404.46 346.83 C 404.47 345.21 404.49 343.60 404.52 342.00 C 407.68 341.99 410.84 342.00 414.00 342.00 C 414.00 356.83 414.00 371.66 414.00 386.49 C 411.00 386.50 408.00 386.50 405.00 386.49 C 405.00 384.97 405.01 383.46 405.02 381.95 C 396.98 389.75 383.12 389.06 374.86 381.98 C 372.29 379.19 370.05 375.95 368.91 372.31 C 367.73 367.45 367.72 362.34 368.72 357.45 M 390.31 350.16 C 386.41 350.93 382.50 352.73 380.20 356.11 C 377.55 359.70 377.36 364.49 378.21 368.73 C 379.74 373.52 383.94 377.68 389.05 378.38 C 396.91 380.05 404.94 372.96 404.58 365.00 C 405.03 359.01 401.14 352.70 395.23 351.07 C 393.64 350.61 391.99 349.83 390.31 350.16 Z" />
<path fill="#d53828" opacity="1.00" d=" M 495.27 342.24 C 498.85 341.77 502.49 341.89 506.09 342.09 C 511.90 343.08 517.61 346.11 520.76 351.24 C 523.77 355.15 524.76 360.16 524.57 365.00 C 524.82 372.87 520.49 380.89 513.41 384.51 C 505.25 389.11 494.61 388.27 486.88 383.17 C 477.15 376.13 475.42 361.40 481.59 351.48 C 484.70 346.74 489.74 343.42 495.27 342.24 M 500.30 350.15 C 497.09 350.88 493.82 352.13 491.64 354.70 C 488.01 358.42 486.96 364.19 488.61 369.06 C 490.38 375.82 498.23 380.26 504.92 378.17 C 510.85 376.73 514.59 370.75 514.99 364.91 C 515.36 357.04 508.20 349.72 500.30 350.15 Z" />
<path fill="#d53828" opacity="1.00" d=" M 617.41 342.61 C 620.51 341.70 623.80 341.99 627.00 341.95 C 636.69 341.64 645.86 349.23 647.59 358.74 C 648.75 365.54 648.14 373.18 643.69 378.76 C 635.13 390.34 615.67 390.32 606.54 379.44 C 601.96 373.37 600.07 365.03 602.58 357.72 C 604.12 350.39 610.30 344.58 617.41 342.61 M 622.39 350.54 C 614.80 352.06 609.71 360.60 611.80 367.99 C 613.14 374.27 619.47 379.14 625.91 378.66 C 631.20 378.19 636.17 374.49 637.57 369.27 C 640.27 362.52 636.61 354.02 629.86 351.34 C 627.49 350.47 624.87 349.54 622.39 350.54 Z" />
<path fill="#d53828" opacity="1.00" d=" M 682.46 342.03 C 685.64 341.99 688.82 341.99 692.00 342.00 C 692.00 349.34 692.01 356.69 691.97 364.03 C 691.96 367.65 692.41 371.47 694.37 374.60 C 699.01 380.69 710.06 379.41 713.44 372.61 C 715.00 369.67 715.19 366.23 715.47 362.98 C 715.57 356.00 715.47 349.02 715.47 342.04 C 718.64 341.99 721.82 341.99 725.00 341.99 C 725.00 356.83 725.00 371.66 725.00 386.49 C 722.00 386.50 719.00 386.50 716.01 386.49 C 716.00 384.96 715.99 383.44 716.00 381.92 C 711.08 386.72 703.77 388.50 697.11 387.05 C 691.41 386.22 686.00 382.45 683.98 376.95 C 682.84 373.44 682.45 369.71 682.47 366.03 C 682.50 358.03 682.53 350.03 682.46 342.03 Z" />
<path fill="#d53828" opacity="1.00" d=" M 769.48 342.05 C 772.64 341.99 775.82 341.99 779.00 342.00 C 779.00 356.83 779.00 371.66 779.00 386.49 C 775.84 386.50 772.69 386.50 769.55 386.51 C 769.42 371.69 769.56 356.87 769.48 342.05 Z" />
<path fill="#d53828" opacity="1.00" d=" M 805.26 342.21 C 807.81 341.82 810.42 341.96 813.01 341.95 C 822.21 341.58 831.13 348.13 833.66 356.97 C 835.85 365.24 834.46 375.00 828.13 381.15 C 819.74 389.27 805.57 389.44 796.31 382.72 C 789.02 377.08 786.44 366.77 788.85 358.07 C 790.48 350.07 797.44 343.94 805.26 342.21 M 810.29 350.16 C 804.70 351.11 799.45 355.26 798.28 360.97 C 796.49 367.70 800.22 375.72 807.03 377.88 C 813.08 380.27 820.55 377.15 823.28 371.29 C 824.88 367.79 825.67 363.66 824.18 359.98 C 822.50 354.05 816.30 350.01 810.29 350.16 Z" />
<path fill="#d53828" opacity="1.00" d=" M 843.46 342.01 C 846.48 341.99 849.52 341.99 852.56 342.03 C 852.50 343.62 852.44 345.21 852.40 346.80 C 856.80 343.28 862.34 341.37 868.00 341.93 C 874.51 341.27 881.45 344.65 884.26 350.70 C 886.01 354.87 886.48 359.47 886.43 363.97 C 886.35 371.47 886.46 378.98 886.36 386.49 C 883.23 386.50 880.11 386.50 877.00 386.49 C 876.95 378.97 877.06 371.45 876.98 363.94 C 876.73 359.61 875.82 354.53 871.87 352.04 C 867.01 349.10 860.43 350.56 856.48 354.37 C 853.55 357.86 853.17 362.63 853.00 366.99 C 852.95 373.49 853.03 379.99 853.00 386.49 C 849.84 386.50 846.69 386.51 843.55 386.52 C 843.40 371.68 843.57 356.85 843.46 342.01 Z" />
<path fill="#d53828" opacity="1.00" d=" M 896.46 348.48 C 899.96 343.66 906.21 341.52 912.01 341.95 C 918.36 341.58 924.92 342.49 930.39 345.94 C 929.37 348.75 927.96 351.38 926.30 353.86 C 921.26 351.66 915.78 348.90 910.14 350.34 C 908.04 351.03 905.51 351.87 904.66 354.15 C 903.85 355.78 905.13 357.58 906.58 358.34 C 912.77 361.17 919.99 360.76 926.13 363.73 C 932.33 366.74 932.68 375.36 929.56 380.73 C 925.74 385.82 918.97 387.15 912.99 387.53 C 906.07 387.52 898.89 386.12 893.12 382.12 C 893.92 379.24 895.31 376.59 896.91 374.08 C 902.32 376.83 908.29 379.40 914.50 378.78 C 917.29 378.28 921.48 377.57 921.56 373.96 C 922.23 372.32 920.18 371.46 919.15 370.71 C 913.04 368.36 906.03 368.99 900.18 365.79 C 897.34 364.27 894.82 361.47 894.97 358.07 C 894.97 354.85 894.46 351.25 896.46 348.48 Z" />
</g>
</svg>
